<svg width="512" height="512" viewBox="0 0 512 512" fill="none" xmlns="http://www.w3.org/2000/svg">
<path d="M128 102.4C128 88.262 139.462 76.8 153.6 76.8H486.4C500.538 76.8 512 88.262 512 102.4C512 116.538 500.538 128 486.4 128H153.6C139.462 128 128 116.537 128 102.4ZM486.4 230.4H25.6C11.462 230.4 0 241.863 0 256C0 270.138 11.462 281.6 25.6 281.6H486.4C500.538 281.6 512 270.138 512 256C512 241.863 500.538 230.4 486.4 230.4ZM486.4 384H256C241.863 384 230.4 395.462 230.4 409.6C230.4 423.737 241.863 435.2 256 435.2H486.4C500.538 435.2 512 423.737 512 409.6C512 395.462 500.538 384 486.4 384Z" fill="black"/>
</svg>
